<svg viewBox="0 0 24 28" fill="#666666" xmlns="http://www.w3.org/2000/svg">
  <path d="M17.111 27.22H6.61532C6.29345 27.22 6.03223 26.966 6.03223 26.653C6.03223 26.3399 6.29345 26.0859 6.61532 26.0859H17.111C17.4329 26.0859 17.6941 26.3399 17.6941 26.653C17.6941 26.966 17.4329 27.22 17.111 27.22Z"
  />
  <path d="M18.0662 14.7442H5.66027C5.14481 14.7442 4.65851 14.5253 4.32498 14.1431C3.99144 13.7609 3.84917 13.2573 3.9343 12.7639L5.87834 1.42225C6.01829 0.597707 6.74366 0 7.60314 0H16.1233C16.9828 0 17.7082 0.597707 17.8481 1.42111L19.7922 12.7628C19.8773 13.2573 19.735 13.7597 19.4015 14.142C19.0691 14.5253 18.5817 14.7442 18.0662 14.7442ZM7.60314 1.13417C7.31742 1.13417 7.07486 1.33378 7.02821 1.60712L5.08417 12.9488C5.05618 13.1155 5.10166 13.28 5.21478 13.4093C5.3279 13.5386 5.48534 13.61 5.66027 13.61H18.0674C18.2411 13.61 18.3997 13.5386 18.5129 13.4093C18.626 13.28 18.6715 13.1167 18.6435 12.9488L16.6994 1.60712C16.6516 1.33378 16.4091 1.13417 16.1233 1.13417H7.60314Z"
  />
  <path d="M11.8634 27.2201C11.5415 27.2201 11.2803 26.966 11.2803 26.653V20.9821C11.2803 20.6691 11.5415 20.415 11.8634 20.415C12.1852 20.415 12.4465 20.6691 12.4465 20.9821V26.653C12.4465 26.966 12.1852 27.2201 11.8634 27.2201Z"
  />
  <path d="M20.6097 21.5492H3.11679C2.79492 21.5492 2.53369 21.2952 2.53369 20.9821V18.7138C2.53369 17.1509 3.84216 15.8784 5.44917 15.8784H18.2773C19.8843 15.8784 21.1928 17.1509 21.1928 18.7138V20.9821C21.1928 21.2952 20.9315 21.5492 20.6097 21.5492ZM3.69988 20.415H20.0266V18.7138C20.0266 17.7758 19.2417 17.0125 18.2773 17.0125H5.44917C4.48473 17.0125 3.69988 17.7758 3.69988 18.7138V20.415Z"
  />
  <path d="M20.61 20.415C20.2881 20.415 20.0269 20.1609 20.0269 19.8479V16.4454C20.0269 14.8825 21.3353 13.61 22.9423 13.61C23.2642 13.61 23.5254 13.864 23.5254 14.1771C23.5254 14.4901 23.2642 14.7442 22.9423 14.7442C21.9779 14.7442 21.193 15.5074 21.193 16.4454V19.8479C21.193 20.1609 20.9318 20.415 20.61 20.415Z"
  />
  <path d="M3.11665 20.415C2.79478 20.415 2.53356 20.1609 2.53356 19.8479V16.4454C2.53356 15.5074 1.74871 14.7442 0.784268 14.7442C0.462399 14.7442 0.201172 14.4901 0.201172 14.1771C0.201172 13.864 0.462399 13.61 0.784268 13.61C2.39128 13.61 3.69975 14.8825 3.69975 16.4454V19.8479C3.69975 20.1609 3.43852 20.415 3.11665 20.415Z"
  />
</svg>
